<?xml version="1.0" encoding="UTF-8" standalone="no"?>
<!-- Created with Inkscape (http://www.inkscape.org/) -->

<svg
   width="19.84375mm"
   height="28.045837mm"
   viewBox="0 0 19.84375 28.045837"
   version="1.1"
   id="svg5"
   xml:space="preserve"
   inkscape:export-filename="html.svg"
   inkscape:export-xdpi="96"
   inkscape:export-ydpi="96"
   xmlns:inkscape="http://www.inkscape.org/namespaces/inkscape"
   xmlns:sodipodi="http://sodipodi.sourceforge.net/DTD/sodipodi-0.dtd"
   xmlns="http://www.w3.org/2000/svg"
   xmlns:svg="http://www.w3.org/2000/svg"><sodipodi:namedview
     id="namedview7"
     pagecolor="#ffffff"
     bordercolor="#000000"
     borderopacity="0.25"
     inkscape:showpageshadow="2"
     inkscape:pageopacity="0.0"
     inkscape:pagecheckerboard="0"
     inkscape:deskcolor="#d1d1d1"
     inkscape:document-units="mm"
     showgrid="false" /><defs
     id="defs2" /><g
     inkscape:label="Camada 1"
     inkscape:groupmode="layer"
     id="layer1"
     transform="translate(-96.185427,-97.420774)"><g
       style="fill:none"
       id="g222"
       transform="matrix(0.26458333,0,0,0.26458333,96.185421,97.420774)"><path
         d="M 0,21.1083 6.8258,97.5145 37.4535,106 68.1666,97.5035 75,21.1083 Z M 58.5467,63.7369 56.5588,82.2211 56.5664,83.8042 37.5,89.1193 37.4848,89.1328 18.2661,83.8768 16.9659,69.2352 h 9.4245 l 0.6683,7.4015 10.4447,2.782 -0.0034,0.0127 v -0.027 l 10.4844,-2.951 1.1065,-12.2842 H 27.1754 L 26.9877,62.1808 26.5596,57.4129 26.3354,54.8816 H 49.925 l 0.8578,-9.2877 H 14.8537 L 14.665,43.408 14.237,38.3166 14.0128,35.462 H 61.0439 L 60.818,38.277 Z M 58.6482,11.2921 52.6007,4.22166 h 6.0475 V 0 H 45.1134 v 3.68382 l 7.0973,6.44818 h -7.0973 v 4.2216 h 13.5348 z m -16.0726,0 -5.7583,-7.07044 h 5.7583 V 0 h -12.689 v 3.68382 l 6.5416,6.44818 h -6.5416 v 4.2216 h 12.689 z M 27.3489,10.132 H 20.5814 V 4.22166 h 6.7675 V 0 h -11.843 v 14.3536 h 11.843 z"
         fill="#000000"
         id="path213" /></g></g></svg>
