<?xml version="1.0" encoding="UTF-8" standalone="no"?>
<!-- Created with Inkscape (http://www.inkscape.org/) -->

<svg
   width="21.166664mm"
   height="21.166664mm"
   viewBox="0 0 21.166664 21.166664"
   version="1.1"
   id="svg5"
   xml:space="preserve"
   inkscape:export-filename="html.svg"
   inkscape:export-xdpi="96"
   inkscape:export-ydpi="96"
   xmlns:inkscape="http://www.inkscape.org/namespaces/inkscape"
   xmlns:sodipodi="http://sodipodi.sourceforge.net/DTD/sodipodi-0.dtd"
   xmlns="http://www.w3.org/2000/svg"
   xmlns:svg="http://www.w3.org/2000/svg"><sodipodi:namedview
     id="namedview7"
     pagecolor="#ffffff"
     bordercolor="#000000"
     borderopacity="0.25"
     inkscape:showpageshadow="2"
     inkscape:pageopacity="0.0"
     inkscape:pagecheckerboard="0"
     inkscape:deskcolor="#d1d1d1"
     inkscape:document-units="mm"
     showgrid="false" /><defs
     id="defs2" /><g
     inkscape:label="Camada 1"
     inkscape:groupmode="layer"
     id="layer1"
     transform="translate(-51.22947,-99.176992)"><g
       style="fill:none"
       id="g233"
       transform="matrix(0.26458333,0,0,0.26458333,51.229472,99.176992)"><path
         d="m 30.3125,61.4583 c 0,2.2917 -1.6146,3.4375 -4.8438,3.4375 -3.7152,0 -5.5729,-1.0937 -5.5729,-3.2812 0,-2.2222 1.7014,-3.3334 5.1042,-3.3334 3.5417,0 5.3125,1.0591 5.3125,3.1771 z m -1.875,-24.2708 c 0,2.9514 -1.2847,4.4271 -3.8542,4.4271 -2.6736,0 -4.0104,-1.4584 -4.0104,-4.375 0,-3.125 1.3368,-4.6875 4.0104,-4.6875 1.25,0 2.2049,0.4427 2.8646,1.3281 0.6597,0.8854 0.9896,1.9879 0.9896,3.3073 z m 8.6458,-3.9063 v -6.5104 c -2.7083,1.007 -5.0521,1.5104 -7.0312,1.5104 -1.7361,-1.0069 -3.6459,-1.5104 -5.7292,-1.5104 -2.9861,0 -5.5035,0.9896 -7.5521,2.9688 -2.0486,1.9791 -3.0729,4.4618 -3.0729,7.4479 0,1.7361 0.5122,3.5069 1.5365,5.3125 1.0243,1.8056 2.3003,2.9687 3.8281,3.4896 v 0.1562 c -1.3194,0.5903 -1.9792,2.066 -1.9792,4.4271 0,1.8403 0.7118,3.1771 2.1354,4.0104 v 0.1563 c -3.9236,1.2847 -5.8854,3.6979 -5.8854,7.2396 0,1.5625 0.3473,2.9253 1.0417,4.0885 0.6944,1.1632 1.6319,2.0486 2.8125,2.6563 1.1806,0.6076 2.4306,1.0503 3.75,1.3281 1.3194,0.2778 2.7257,0.4166 4.2187,0.4166 7.7778,0 11.6667,-3.2638 11.6667,-9.7916 0,-2.3264 -0.8333,-4.0452 -2.5,-5.1563 -1.6667,-1.1111 -3.8542,-1.9097 -6.5625,-2.3958 -0.9375,-0.1736 -1.8316,-0.5295 -2.6823,-1.0677 -0.8507,-0.5382 -1.276,-1.224 -1.276,-2.0573 0,-1.5278 0.8507,-2.4306 2.5521,-2.7083 2.6736,-0.5209 4.7916,-1.7361 6.3541,-3.6459 1.5625,-1.9097 2.3438,-4.2361 2.3438,-6.9791 0,-0.8334 -0.1736,-1.7361 -0.5209,-2.7084 1.2848,-0.3125 2.1355,-0.5382 2.5521,-0.6771 z m 3.0729,21.823 h 7.1355 C 47.2222,54.1667 47.1875,52.7431 47.1875,50.8333 V 30.6771 c 0,-1.5972 0.0347,-2.7952 0.1042,-3.5938 h -7.1355 c 0.1042,0.7986 0.1563,2.0313 0.1563,3.6979 v 20.4167 c 0,1.7361 -0.0521,3.0382 -0.1563,3.9063 z m 26.5105,-0.8334 v -6.3021 c -1.0417,0.7292 -2.2223,1.0938 -3.5417,1.0938 -1.8403,0 -2.7604,-1.4236 -2.7604,-4.2708 V 33.0729 h 2.7083 c 0.3125,0 0.7726,0.0174 1.3802,0.0521 0.6077,0.0347 1.0677,0.0521 1.3802,0.0521 v -6.0938 h -5.4687 c 0,-2.8472 0.0521,-4.618 0.1562,-5.3125 h -7.2916 c 0.1389,0.8334 0.2083,1.7882 0.2083,2.8646 v 2.4479 h -3.125 v 6.0938 c 1.25,-0.1042 1.8924,-0.1563 1.9271,-0.1563 0.1041,0 0.2951,0.0087 0.5729,0.0261 0.2778,0.0173 0.4861,0.026 0.625,0.026 v 0.1042 h -0.1042 v 11.3021 c 0,1.2847 0.0434,2.3958 0.1302,3.3333 0.0868,0.9375 0.2865,1.9184 0.599,2.9427 0.3125,1.0243 0.7378,1.8663 1.276,2.526 0.5382,0.6598 1.2934,1.198 2.2657,1.6146 0.9722,0.4167 2.118,0.625 3.4375,0.625 2.2222,0 4.0972,-0.4166 5.625,-1.25 z M 48.125,17.5 c 0,-1.25 -0.4167,-2.3524 -1.25,-3.3073 C 46.0417,13.2378 45,12.7604 43.75,12.7604 c -1.25,0 -2.3003,0.4688 -3.151,1.4063 -0.8507,0.9375 -1.2761,2.0486 -1.2761,3.3333 0,1.25 0.434,2.3351 1.3021,3.2552 0.8681,0.9201 1.9097,1.3802 3.125,1.3802 1.2153,0 2.2483,-0.4687 3.099,-1.4062 0.8507,-0.9375 1.276,-2.0139 1.276,-3.2292 z M 80,15 v 50 c 0,4.1319 -1.467,7.6649 -4.401,10.599 C 72.6649,78.533 69.1319,80 65,80 H 15 C 10.8681,80 7.33507,78.533 4.40104,75.599 1.46701,72.6649 0,69.1319 0,65 V 15 C 0,10.8681 1.46701,7.33507 4.40104,4.40104 7.33507,1.46701 10.8681,0 15,0 H 65 C 69.1319,0 72.6649,1.46701 75.599,4.40104 78.533,7.33507 80,10.8681 80,15 Z"
         fill="#000000"
         id="path224" /></g></g></svg>
