<?xml version="1.0" encoding="UTF-8" standalone="no"?>
<!-- Created with Inkscape (http://www.inkscape.org/) -->

<svg
   width="30.501995mm"
   height="40.520645mm"
   viewBox="0 0 30.501995 40.520645"
   version="1.1"
   id="svg5"
   xml:space="preserve"
   xmlns:xlink="http://www.w3.org/1999/xlink"
   xmlns="http://www.w3.org/2000/svg"
   xmlns:svg="http://www.w3.org/2000/svg"><defs
     id="defs2"><linearGradient
       id="linearGradient11378"><stop
         style="stop-color:#000000;stop-opacity:0.57020283;"
         offset="0"
         id="stop11374" /><stop
         style="stop-color:#000000;stop-opacity:0.74901962;"
         offset="0.23536737"
         id="stop12346" /></linearGradient><radialGradient
       xlink:href="#linearGradient11378"
       id="radialGradient11516"
       cx="45.031223"
       cy="46.432571"
       fx="45.031223"
       fy="46.432571"
       r="15.533496"
       gradientTransform="matrix(2.5253944,-1.5608856,0.45389674,0.73437052,-152.19884,26.510145)"
       gradientUnits="userSpaceOnUse" /></defs><g
     id="layer1"
     transform="translate(-15.965436,-10.347461)"><g
       id="g24332"><rect
         style="fill:url(#radialGradient11516);fill-opacity:1;stroke:none;stroke-width:0.564999"
         id="rect234"
         width="30.501993"
         height="40.520645"
         x="-46.46743"
         y="-50.868107"
         ry="3.0771029"
         transform="scale(-1)" /><path
         d="m 31.21644,20.024444 c -2.92282,0 -5.291672,2.36885 -5.291672,5.29167 0,2.92282 2.368852,5.29167 5.291672,5.29167 2.92281,0 5.29166,-2.36885 5.29166,-5.29167 0,-2.92282 -2.36885,-5.29167 -5.29166,-5.29167 z m 0,1.05834 c 2.3337,0 4.23333,1.89962 4.23333,4.23333 0,0.24805 -0.0248,0.49196 -0.0661,0.72761 -0.13022,-0.0289 -0.32246,-0.0641 -0.5457,-0.0661 -0.16537,-0.002 -0.37207,0.0248 -0.5457,0.0496 0.0599,-0.18397 0.0992,-0.38654 0.0992,-0.59531 0,-0.5085 -0.24805,-0.98186 -0.64493,-1.37253 0.10956,-0.40721 0.21704,-1.10588 -0.0661,-1.38906 -0.83716,0 -1.30018,0.59738 -1.32292,0.62838 -0.25838,-0.062 -0.52503,-0.0992 -0.81029,-0.0992 -0.36586,0 -0.7152,0.0661 -1.04179,0.16537 l 0.0992,-0.0827 c 0,0 -0.46509,-0.64493 -1.32292,-0.64493 -0.29972,0.3018 -0.1633,1.06661 -0.0496,1.45521 -0.40514,0.38654 -0.66146,0.84336 -0.66146,1.33946 0,0.17363 0.0413,0.33899 0.0827,0.49609 -0.14676,-0.0165 -0.675924,-0.0661 -0.892965,-0.0661 -0.192236,0 -0.489892,0.0455 -0.727604,0.0992 -0.03307,-0.21084 -0.04961,-0.42581 -0.04961,-0.64492 0,-2.33371 1.899628,-4.23333 4.233338,-4.23333 z m -3.456125,4.91133 c 0.208773,0 0.843355,0.0744 0.926045,0.0827 0.0103,0.0289 0.0207,0.0558 0.0331,0.0827 -0.22738,-0.0207 -0.66766,-0.0517 -0.959115,-0.0165 -0.194303,0.0227 -0.44235,0.093 -0.661458,0.14883 -0.01654,-0.0661 -0.03721,-0.13022 -0.04961,-0.19844 0.23151,-0.0496 0.535368,-0.0992 0.711067,-0.0992 z m 7.077605,0.11575 c 0.21084,0.002 0.40308,0.0372 0.52917,0.0661 -0.006,0.0351 -0.0248,0.0641 -0.0331,0.0992 -0.13436,-0.031 -0.35554,-0.0765 -0.61185,-0.0827 -0.12403,-0.002 -0.32246,0.004 -0.4961,0.0165 0.008,-0.0165 0.0103,-0.0331 0.0165,-0.0496 0.17983,-0.0248 0.40927,-0.0517 0.59531,-0.0496 z m -6.74688,0.14883 c 0.29766,0.002 0.57671,0.0227 0.69454,0.0331 0.27698,0.51677 0.83715,0.89917 1.70325,1.05834 -0.21291,0.11782 -0.40308,0.28318 -0.5457,0.47955 -0.12403,0.0103 -0.25425,0.0165 -0.38034,0.0165 -0.36794,0 -0.59738,-0.32866 -0.79375,-0.61185 -0.19844,-0.28319 -0.44235,-0.31419 -0.57878,-0.33073 -0.13849,-0.0165 -0.18603,0.062 -0.11575,0.11576 0.40307,0.31006 0.54777,0.67799 0.71107,1.00872 0.14676,0.29766 0.45475,0.46302 0.79375,0.46302 h 0.0661 c -0.0103,0.0579 -0.0165,0.11162 -0.0165,0.16537 v 0.57877 c -1.22164,-0.49403 -2.151811,-1.53789 -2.49701,-2.82773 0.217041,-0.0537 0.460954,-0.10956 0.644922,-0.13229 0.08475,-0.0103 0.192236,-0.0186 0.314188,-0.0165 z m 6.63112,0.0662 c 0.23772,0.006 0.44856,0.0517 0.57878,0.0827 -0.29145,1.09554 -1.01079,2.00711 -1.96784,2.56315 v -0.31419 c 0,-0.45062 -0.35553,-1.0294 -0.85989,-1.30638 0.83715,-0.15297 1.38286,-0.51884 1.67018,-1.00873 0.2005,-0.0145 0.43615,-0.0207 0.57877,-0.0165 z m -3.24114,2.16627 c 0.14469,0 0.26458,0.11989 0.26458,0.26458 v 0.76068 c -0.17363,0.0227 -0.34933,0.0331 -0.52916,0.0331 v -0.79375 c 0,-0.14469 0.11988,-0.26458 0.26458,-0.26458 z m -1.05833,0.52917 c 0.14469,0 0.26458,0.11989 0.26458,0.26458 v 0.23151 c -0.17777,-0.0227 -0.3576,-0.0558 -0.52917,-0.0992 v -0.13229 c 0,-0.14469 0.11989,-0.26458 0.26459,-0.26458 z m 2.11666,0 c 0.12816,0 0.23978,0.093 0.26459,0.21497 -0.17157,0.0703 -0.34727,0.13436 -0.52917,0.1819 v -0.13229 c 0,-0.14469 0.11989,-0.26458 0.26458,-0.26458 z"
         id="path22737"
         style="fill:#fcfcfc;fill-opacity:1;stroke-width:0.529167" /><text
         xml:space="preserve"
         style="font-size:4.93889px;fill:#fcfcfc;fill-opacity:1;stroke:none;stroke-width:0.564999"
         x="22.947168"
         y="36.902046"
         id="text23181"><tspan
           id="tspan23179"
           style="font-style:normal;font-variant:normal;font-weight:normal;font-stretch:normal;font-size:4.93889px;font-family:sans-serif;-inkscape-font-specification:sans-serif;stroke-width:0.565"
           x="22.947168"
           y="36.902046">Github</tspan></text><rect
         style="fill:#1a1a1a;fill-opacity:0.571276;stroke:none;stroke-width:0.590075"
         id="rect23287"
         width="16.893656"
         height="6.1202459"
         x="22.769606"
         y="40.159405"
         ry="1.317963" /><g
         style="fill:none"
         id="g23364"
         transform="matrix(0.26458333,0,0,0.26458333,29.114102,41.102861)"><path
           d="M 1,1 8.5,8 1,15"
           stroke="#019292"
           id="path23352" /><path
           d="M 7,1 14.5,8 7,15"
           stroke="#04dddd"
           id="path23354" /></g></g></g></svg>
