<?xml version="1.0" encoding="UTF-8" standalone="no"?>
<!-- Created with Inkscape (http://www.inkscape.org/) -->

<svg
   width="19.843746mm"
   height="28.043289mm"
   viewBox="0 0 19.843746 28.043289"
   version="1.1"
   id="svg5"
   xml:space="preserve"
   inkscape:export-filename="html.svg"
   inkscape:export-xdpi="96"
   inkscape:export-ydpi="96"
   xmlns:inkscape="http://www.inkscape.org/namespaces/inkscape"
   xmlns:sodipodi="http://sodipodi.sourceforge.net/DTD/sodipodi-0.dtd"
   xmlns="http://www.w3.org/2000/svg"
   xmlns:svg="http://www.w3.org/2000/svg"><sodipodi:namedview
     id="namedview7"
     pagecolor="#ffffff"
     bordercolor="#000000"
     borderopacity="0.25"
     inkscape:showpageshadow="2"
     inkscape:pageopacity="0.0"
     inkscape:pagecheckerboard="0"
     inkscape:deskcolor="#d1d1d1"
     inkscape:document-units="mm"
     showgrid="false" /><defs
     id="defs2"><clipPath
       id="clip0_37_8"><rect
         width="75"
         height="106"
         fill="#ffffff"
         id="rect172"
         x="0"
         y="0" /></clipPath></defs><g
     inkscape:label="Camada 1"
     inkscape:groupmode="layer"
     id="layer1"
     transform="translate(-40.252053,-181.36767)"><g
       style="fill:none"
       id="g189"
       transform="matrix(0.26458333,0,0,0.26458333,40.252051,181.36644)"><g
         clip-path="url(#clip0_37_8)"
         id="g170"><path
           d="M 6.82527,97.4823 0,20.8344 H 75 L 68.1673,97.4703 37.454,105.995 Z"
           fill="#000000"
           id="path160" /><path
           d="m 37.4999,99.4789 24.8178,-6.8885 5.839,-65.489 H 37.4999 Z"
           fill="#000000"
           id="path162" /><path
           d="M 37.4999,55.529 H 25.0755 L 24.2174,45.9027 H 37.4999 V 36.5021 H 13.9561 l 0.2248,2.522 2.3077,25.9054 h 21.0113 z m 0,24.4143 -0.0409,0.011 -10.4571,-2.827 -0.6685,-7.4974 h -9.4253 l 1.3154,14.7603 19.2332,5.3457 0.0432,-0.0121 z"
           fill="#ebebeb"
           id="path164" /><path
           d="M 6.97786,0.00469971 H 11.7493 V 4.72459 h 4.3648 V 0.00469971 h 4.7717 V 14.2977 H 16.1143 V 9.51156 H 11.7496 V 14.2977 H 6.97827 V 0.00469971 Z M 27.1605,4.74447 H 22.9601 V 0.00469971 H 36.135 V 4.74447 H 31.9326 V 14.2977 H 27.1609 Z M 38.2258,0.00469971 H 43.201 L 46.2615,5.02683 49.3191,0.00469971 h 4.9772 V 14.2977 H 49.5445 V 7.2133 l -3.2828,5.082 h -0.0819 l -3.2852,-5.082 v 7.0844 H 38.226 V 0.00469971 Z m 18.4452,0 h 4.773 V 9.57325 h 6.7101 V 14.2977 H 56.671 Z"
           fill="#000000"
           id="path166" /><path
           d="m 37.4676,55.529 v 9.4005 h 11.5616 l -1.0898,12.1918 -10.4718,2.8299 v 9.7801 l 19.2483,-5.3411 0.1412,-1.5882 2.2064,-24.7486 0.2291,-2.5244 h -2.5302 z m 0,-19.0269 v 9.4006 h 22.6793 l 0.1884,-2.1129 0.4278,-4.7657 0.2245,-2.522 z"
           fill="#ffffff"
           id="path168" /></g></g></g></svg>
