<?xml version="1.0" encoding="UTF-8" standalone="no"?>
<!-- Created with Inkscape (http://www.inkscape.org/) -->

<svg
   width="20.668381mm"
   height="20.668373mm"
   viewBox="0 0 20.668381 20.668373"
   version="1.1"
   id="svg5"
   xml:space="preserve"
   inkscape:export-filename="html.svg"
   inkscape:export-xdpi="96"
   inkscape:export-ydpi="96"
   xmlns:inkscape="http://www.inkscape.org/namespaces/inkscape"
   xmlns:sodipodi="http://sodipodi.sourceforge.net/DTD/sodipodi-0.dtd"
   xmlns="http://www.w3.org/2000/svg"
   xmlns:svg="http://www.w3.org/2000/svg"><sodipodi:namedview
     id="namedview7"
     pagecolor="#ffffff"
     bordercolor="#000000"
     borderopacity="0.25"
     inkscape:showpageshadow="2"
     inkscape:pageopacity="0.0"
     inkscape:pagecheckerboard="0"
     inkscape:deskcolor="#d1d1d1"
     inkscape:document-units="mm"
     showgrid="false" /><defs
     id="defs2" /><g
     inkscape:label="Camada 1"
     inkscape:groupmode="layer"
     id="layer1"
     transform="translate(-136.41355,-114.78457)"><g
       style="fill:none"
       id="g211"
       transform="matrix(0.26458333,0,0,0.26458333,136.41354,114.78456)"><path
         d="M 0,0 V 78.1167 H 78.1167 V 0 Z m 42.5327,58.5648 c 0,9.6056 -4.6552,12.8075 -11.5585,12.8075 C 29.17,71.3698 27.3773,71.0864 25.6604,70.5321 L 26.4325,65.4 c 1.2568,0.4306 2.5774,0.6455 3.9058,0.6358 3.6334,0 5.8361,-1.635 5.8361,-7.6754 v -22.345 h 6.3583 z M 57.3385,71.3269 C 54.0682,71.333 50.8442,70.5543 47.9373,69.056 l 1.4079,-5.2683 c 2.5668,1.4476 5.4556,2.2283 8.4021,2.2708 4.0194,0.0227 6.2902,-1.8847 6.2902,-4.7233 0,-2.8385 -1.7258,-4.1102 -6.1313,-5.7679 -5.7452,-2.0438 -9.4012,-5.1321 -9.4012,-10.1052 0,-5.6998 4.746,-9.9917 12.3079,-9.9917 2.875,-0.0875 5.7302,0.5037 8.334,1.7259 l -1.5215,5.1093 c -2.1517,-1.0941 -4.5349,-1.6549 -6.9487,-1.635 -4.0421,0 -5.7452,2.1346 -5.7452,4.1784 0,2.6795 2.021,3.9285 6.6535,5.6997 6.0404,2.2709 8.9471,5.3365 8.9471,10.3323 0,5.609 -4.2238,10.4459 -13.1936,10.4459 z"
         fill="#000000"
         id="path202" /></g></g></svg>
