<?xml version="1.0" encoding="UTF-8" standalone="no"?>
<!-- Created with Inkscape (http://www.inkscape.org/) -->

<svg
   width="30.501995mm"
   height="40.520645mm"
   viewBox="0 0 30.501995 40.520645"
   version="1.1"
   id="svg5"
   xml:space="preserve"
   xmlns:inkscape="http://www.inkscape.org/namespaces/inkscape"
   xmlns:sodipodi="http://sodipodi.sourceforge.net/DTD/sodipodi-0.dtd"
   xmlns="http://www.w3.org/2000/svg"
   xmlns:svg="http://www.w3.org/2000/svg"><sodipodi:namedview
     id="namedview7"
     pagecolor="#ffffff"
     bordercolor="#000000"
     borderopacity="0.25"
     inkscape:showpageshadow="2"
     inkscape:pageopacity="0.0"
     inkscape:pagecheckerboard="0"
     inkscape:deskcolor="#d1d1d1"
     inkscape:document-units="mm"
     showgrid="false" /><defs
     id="defs2" /><g
     inkscape:label="Camada 1"
     inkscape:groupmode="layer"
     id="layer1"
     transform="translate(-50.902929,-10.864222)"><g
       id="g25320"
       inkscape:label="linkedin"
       transform="translate(-15.681388)"><rect
         style="fill:#0389d3;fill-opacity:1;stroke:none;stroke-width:0.564999"
         id="rect234-5-9"
         width="30.501993"
         height="40.520645"
         x="-97.086311"
         y="-51.384869"
         ry="3.0771029"
         transform="scale(-1)" /><text
         xml:space="preserve"
         style="font-size:4.93889px;fill:#fcfcfc;fill-opacity:1;stroke:none;stroke-width:0.564999"
         x="71.453522"
         y="37.418804"
         id="text23181-3-3"><tspan
           sodipodi:role="line"
           id="tspan23179-5-6"
           style="font-style:normal;font-variant:normal;font-weight:normal;font-stretch:normal;font-size:4.93889px;font-family:sans-serif;-inkscape-font-specification:sans-serif;stroke-width:0.565"
           x="71.453522"
           y="37.418804">LinkedIn</tspan></text><rect
         style="fill:#1a1a1a;fill-opacity:0.571276;stroke:none;stroke-width:0.590075"
         id="rect23287-6-0"
         width="16.893656"
         height="6.1202459"
         x="73.388489"
         y="40.676159"
         ry="1.317963" /><g
         style="fill:none"
         id="g23364-2-6"
         transform="matrix(0.26458333,0,0,0.26458333,79.732988,41.619621)"><path
           d="M 1,1 8.5,8 1,15"
           stroke="#019292"
           id="path23352-9-2" /><path
           d="M 7,1 14.5,8 7,15"
           stroke="#04dddd"
           id="path23354-1-6" /></g><path
         d="m 85.539485,21.526259 h -7.40833 c -0.58473,0 -1.05834,0.473604 -1.05834,1.058333 v 7.408334 c 0,0.584729 0.47361,1.058333 1.05834,1.058333 h 7.40833 c 0.58473,0 1.05833,-0.473604 1.05833,-1.058333 v -7.408334 c 0,-0.584729 -0.4736,-1.058333 -1.05833,-1.058333 z m -5.29167,7.408333 h -1.33509 v -3.704167 h 1.33509 z m -0.69109,-4.383088 c -0.40799,0 -0.68051,-0.271991 -0.68051,-0.635 0,-0.363008 0.27199,-0.635 0.72549,-0.635 0.40799,0 0.68051,0.271992 0.68051,0.635 0,0.363009 -0.27199,0.635 -0.72549,0.635 z m 5.45359,4.383088 h -1.29222 V 26.91 c 0,-0.559858 -0.34449,-0.688975 -0.47361,-0.688975 -0.12911,0 -0.55986,0.08625 -0.55986,0.688975 0,0.08625 0,2.024592 0,2.024592 h -1.33508 v -3.704167 h 1.33508 v 0.516996 c 0.17198,-0.301625 0.51647,-0.516996 1.16258,-0.516996 0.64612,0 1.16311,0.516996 1.16311,1.679575 z"
         id="path22746"
         style="fill:#fcfcfc;fill-opacity:1;stroke-width:0.529167" /></g></g></svg>
