<?xml version="1.0" encoding="UTF-8" standalone="no"?>
<!-- Created with Inkscape (http://www.inkscape.org/) -->

<svg
   width="27.326431mm"
   height="10.161148mm"
   viewBox="0 0 27.326431 10.161148"
   version="1.1"
   id="svg5"
   xml:space="preserve"
   inkscape:export-filename="html.svg"
   inkscape:export-xdpi="96"
   inkscape:export-ydpi="96"
   xmlns:inkscape="http://www.inkscape.org/namespaces/inkscape"
   xmlns:sodipodi="http://sodipodi.sourceforge.net/DTD/sodipodi-0.dtd"
   xmlns="http://www.w3.org/2000/svg"
   xmlns:svg="http://www.w3.org/2000/svg"><sodipodi:namedview
     id="namedview7"
     pagecolor="#ffffff"
     bordercolor="#000000"
     borderopacity="0.25"
     inkscape:showpageshadow="2"
     inkscape:pageopacity="0.0"
     inkscape:pagecheckerboard="0"
     inkscape:deskcolor="#d1d1d1"
     inkscape:document-units="mm"
     showgrid="false" /><defs
     id="defs2" /><g
     inkscape:label="Camada 1"
     inkscape:groupmode="layer"
     id="layer1"
     transform="translate(-21.553433,-146.53669)"><g
       style="fill:none"
       id="g244"
       transform="matrix(0.26458333,0,0,0.26458333,21.553433,146.53669)"><path
         d="M 90.4613,8.41187 77.83,16.125 V 0 L 70.6813,4.59562 V 27.2244 l -5.9394,3.7893 -6.5306,-3.7893 V 20.1831 L 70.6813,12.3894 64.8225,8.73437 51.8956,16.3131 38.915,8.25062 25.8269,16.125 12.9806,8.41187 0,15.8831 V 30.745 l 6.36938,4.0044 V 20.0487 l 6.61122,-3.9506 6.1544,3.87 v 14.9156 l 6.7456,-4.0043 12.9269,7.525 12.8731,-7.525 13.1419,7.525 13.0881,-7.525 12.3088,7.525 v -8.0625 l -6.02,-3.1175 v -7.4175 l 6.3156,-3.655 6.235,3.7893 v 6.8532 l 6.531,-3.7894 v -6.9875 z m -45.1769,18.81253 -6.45,3.7087 -6.45,-3.7087 v -7.3907 l 6.45,-3.7087 6.45,3.7087 z"
         fill="#000000"
         id="path235" /></g></g></svg>
