<?xml version="1.0" encoding="UTF-8" standalone="no"?>
<!-- Created with Inkscape (http://www.inkscape.org/) -->

<svg
   width="14.338795mm"
   height="15.831711mm"
   viewBox="0 0 14.338795 15.831711"
   version="1.1"
   id="svg5"
   xml:space="preserve"
   xmlns:inkscape="http://www.inkscape.org/namespaces/inkscape"
   xmlns:sodipodi="http://sodipodi.sourceforge.net/DTD/sodipodi-0.dtd"
   xmlns="http://www.w3.org/2000/svg"
   xmlns:svg="http://www.w3.org/2000/svg"><sodipodi:namedview
     id="namedview7"
     pagecolor="#ffffff"
     bordercolor="#000000"
     borderopacity="0.25"
     inkscape:showpageshadow="2"
     inkscape:pageopacity="0.0"
     inkscape:pagecheckerboard="0"
     inkscape:deskcolor="#d1d1d1"
     inkscape:document-units="mm"
     showgrid="false" /><defs
     id="defs2"><filter
       y="-2.1783762"
       height="5.3567529"
       inkscape:menu-tooltip="Darkens the edge with an inner blur and adds a flexible glow"
       inkscape:menu="Shadows and Glows"
       inkscape:label="Dark and Glow"
       style="color-interpolation-filters:sRGB"
       id="filter57407"
       x="-2.178304"
       width="5.3566079"><feGaussianBlur
         stdDeviation="5"
         result="result6"
         id="feGaussianBlur57397" /><feComposite
         result="result8"
         in="SourceGraphic"
         operator="atop"
         in2="result6"
         id="feComposite57399" /><feComposite
         result="result9"
         operator="over"
         in2="SourceAlpha"
         in="result8"
         id="feComposite57401" /><feColorMatrix
         values="1 0 0 0 0 0 1 0 0 0 0 0 1 0 0 0 0 0 1 0 "
         result="result10"
         id="feColorMatrix57403" /><feBlend
         in="result10"
         mode="normal"
         in2="result6"
         id="feBlend57405" /></filter></defs><g
     inkscape:label="Camada 1"
     inkscape:groupmode="layer"
     id="layer1"
     transform="translate(-49.993345,-144.09533)"><g
       id="projects"
       inkscape:label="project"
       transform="translate(-22.498683,2.6215277)"
       inkscape:export-filename="projects.svg"
       inkscape:export-xdpi="96"
       inkscape:export-ydpi="96"><ellipse
         style="opacity:1;fill:#9c29b7;fill-opacity:0.0704201;stroke:#855388;stroke-width:0.264583;stroke-opacity:1"
         id="path14445-9-3-2"
         cx="79.712143"
         cy="149.38965"
         rx="6.9863892"
         ry="7.7835627" /><ellipse
         style="fill:#9c29b7;fill-opacity:0.0704201;stroke:#f9e3fe;stroke-width:0.821;stroke-dasharray:0.821, 0.821;stroke-dashoffset:0;stroke-opacity:1"
         id="path14445-3-3-6-5"
         cx="79.762695"
         cy="149.42763"
         rx="5.8452702"
         ry="6.5122375" /><ellipse
         style="fill:#9c29b7;fill-opacity:0.0704201;stroke:#824ccb;stroke-width:0.576716;stroke-dasharray:6.92059, 6.92059;stroke-dashoffset:0;stroke-opacity:1"
         id="path14445-3-5-6-1-4"
         cx="79.880028"
         cy="149.40804"
         rx="4.1060438"
         ry="4.5745592" /><path
         d="m 80.070122,150.52182 v 0 c -0.642756,0 -1.16023,-0.51747 -1.16023,-1.14347 0,-0.64266 0.517474,-1.16023 1.16023,-1.16023 0.625998,0 1.143574,0.51757 1.143574,1.16023 0,0.626 -0.517576,1.14347 -1.143574,1.14347 z m 2.637549,-1.61916 v 0 l -0.659411,-0.1169 c -0.0416,-0.14193 -0.09187,-0.26721 -0.175256,-0.40067 l 0.3923,-0.56754 c 0.0334,-0.0418 0.0334,-0.11691 -0.01667,-0.16688 l -0.467502,-0.4675 c -0.05,-0.0502 -0.125182,-0.0502 -0.175254,-0.0166 l -0.559269,0.3922 c -0.125078,-0.0834 -0.267015,-0.12528 -0.400573,-0.17535 l -0.116902,-0.65931 c -0.01666,-0.0585 -0.08339,-0.10853 -0.141836,-0.10853 h -0.66769 c -0.05845,0 -0.125281,0.05 -0.13366,0.10853 l -0.125179,0.67606 c -0.125078,0.0333 -0.275294,0.0919 -0.383917,0.1586 l -0.559269,-0.37564 c -0.04997,-0.0501 -0.125078,-0.0334 -0.175251,0.0167 l -0.467403,0.46741 c -0.05007,0.0499 -0.05007,0.12517 -0.01666,0.16697 l 0.375538,0.55079 c -0.06673,0.13346 -0.1168,0.25874 -0.158493,0.40067 l -0.659413,0.1169 c -0.05845,0 -0.108622,0.0667 -0.108622,0.13357 v 0.67607 c 0,0.0583 0.05017,0.1167 0.108622,0.1167 l 0.659413,0.13365 c 0.04169,0.14174 0.09177,0.26712 0.175352,0.38392 l -0.37574,0.55089 c -0.05007,0.0501 -0.03341,0.13356 0.01666,0.17515 l 0.467605,0.47588 c 0.04997,0.0417 0.125079,0.0585 0.175049,0.0168 l 0.542612,-0.37574 c 0.125281,0.0751 0.258839,0.1169 0.383917,0.15022 l 0.125179,0.67617 c 0.0084,0.0667 0.07521,0.10842 0.13366,0.10842 h 0.66769 c 0.05845,0 0.12518,-0.0417 0.141837,-0.10842 l 0.116901,-0.65951 c 0.133558,-0.05 0.275495,-0.0918 0.400574,-0.15012 l 0.55089,0.36726 c 0.04179,0.0334 0.116898,0.0334 0.166972,-0.008 l 0.467401,-0.47579 c 0.05007,-0.0501 0.0668,-0.12528 0.01673,-0.17535 l -0.375633,-0.56756 c 0.08339,-0.1168 0.133657,-0.24218 0.175249,-0.38392 l 0.659411,-0.13365 c 0.05847,0 0.108522,-0.0585 0.108522,-0.1167 v -0.67607 c 0,-0.0668 -0.05007,-0.13357 -0.108522,-0.13357 z m -2.170145,0.47569 c 0,-0.26712 -0.216945,-0.48416 -0.467404,-0.48416 -0.267116,0 -0.484161,0.21704 -0.484161,0.48416 0,0.25036 0.217045,0.4674 0.484161,0.4674 0.250459,0 0.467404,-0.21704 0.467404,-0.4674 v 0"
         style="fill:#f9e3fe;fill-opacity:1;fill-rule:evenodd;stroke:none;stroke-width:0.0100951;filter:url(#filter57407)"
         id="path55662-1-4"
         transform="matrix(0.48400298,0,0,0.52127369,40.883109,71.688594)" /><path
         d="m 80.099554,150.51383 v 0 c -0.642756,0 -1.16023,-0.51747 -1.16023,-1.14347 0,-0.64266 0.517474,-1.16023 1.16023,-1.16023 0.625998,0 1.143574,0.51757 1.143574,1.16023 0,0.626 -0.517576,1.14347 -1.143574,1.14347 z m 2.637549,-1.61916 v 0 l -0.659411,-0.1169 c -0.0416,-0.14193 -0.09187,-0.26721 -0.175256,-0.40067 l 0.3923,-0.56754 c 0.0334,-0.0418 0.0334,-0.11691 -0.01667,-0.16688 l -0.467502,-0.4675 c -0.05,-0.0502 -0.125182,-0.0502 -0.175254,-0.0166 l -0.559269,0.3922 c -0.125078,-0.0834 -0.267015,-0.12528 -0.400573,-0.17535 l -0.116902,-0.65931 c -0.01666,-0.0585 -0.08339,-0.10853 -0.141836,-0.10853 h -0.66769 c -0.05845,0 -0.125281,0.05 -0.13366,0.10853 l -0.125179,0.67606 c -0.125078,0.0333 -0.275294,0.0919 -0.383917,0.1586 l -0.559269,-0.37564 c -0.04997,-0.0501 -0.125078,-0.0334 -0.175251,0.0167 l -0.467403,0.46741 c -0.05007,0.0499 -0.05007,0.12517 -0.01666,0.16697 l 0.375538,0.55079 c -0.06673,0.13346 -0.1168,0.25874 -0.158493,0.40067 l -0.659413,0.1169 c -0.05845,0 -0.108622,0.0667 -0.108622,0.13357 v 0.67607 c 0,0.0583 0.05017,0.1167 0.108622,0.1167 l 0.659413,0.13365 c 0.04169,0.14174 0.09177,0.26712 0.175352,0.38392 l -0.37574,0.55089 c -0.05007,0.0501 -0.03341,0.13356 0.01666,0.17515 l 0.467605,0.47588 c 0.04997,0.0417 0.125079,0.0585 0.175049,0.0168 l 0.542612,-0.37574 c 0.125281,0.0751 0.258839,0.1169 0.383917,0.15022 l 0.125179,0.67617 c 0.0084,0.0667 0.07521,0.10842 0.13366,0.10842 h 0.66769 c 0.05845,0 0.12518,-0.0417 0.141837,-0.10842 l 0.116901,-0.65951 c 0.133558,-0.05 0.275495,-0.0918 0.400574,-0.15012 l 0.55089,0.36726 c 0.04179,0.0334 0.116898,0.0334 0.166972,-0.008 l 0.467401,-0.47579 c 0.05007,-0.0501 0.0668,-0.12528 0.01673,-0.17535 l -0.375633,-0.56756 c 0.08339,-0.1168 0.133657,-0.24218 0.175249,-0.38392 l 0.659411,-0.13365 c 0.05847,0 0.108522,-0.0585 0.108522,-0.1167 v -0.67607 c 0,-0.0668 -0.05007,-0.13357 -0.108522,-0.13357 z m -2.170145,0.47569 c 0,-0.26712 -0.216945,-0.48416 -0.467404,-0.48416 -0.267116,0 -0.484161,0.21704 -0.484161,0.48416 0,0.25036 0.217045,0.4674 0.484161,0.4674 0.250459,0 0.467404,-0.21704 0.467404,-0.4674 v 0"
         style="fill:#f9e3fe;fill-opacity:1;fill-rule:evenodd;stroke:none;stroke-width:0.0100951"
         id="path55662-1" /></g></g></svg>
