<?xml version="1.0" encoding="UTF-8" standalone="no"?>
<!-- Created with Inkscape (http://www.inkscape.org/) -->

<svg
   width="26.934578mm"
   height="32.853378mm"
   viewBox="0 0 26.934578 32.853378"
   version="1.1"
   id="svg5"
   xml:space="preserve"
   inkscape:export-filename="html.svg"
   inkscape:export-xdpi="96"
   inkscape:export-ydpi="96"
   xmlns:inkscape="http://www.inkscape.org/namespaces/inkscape"
   xmlns:sodipodi="http://sodipodi.sourceforge.net/DTD/sodipodi-0.dtd"
   xmlns="http://www.w3.org/2000/svg"
   xmlns:svg="http://www.w3.org/2000/svg"><sodipodi:namedview
     id="namedview7"
     pagecolor="#ffffff"
     bordercolor="#000000"
     borderopacity="0.25"
     inkscape:showpageshadow="2"
     inkscape:pageopacity="0.0"
     inkscape:pagecheckerboard="0"
     inkscape:deskcolor="#d1d1d1"
     inkscape:document-units="mm"
     showgrid="false" /><defs
     id="defs2" /><g
     inkscape:label="Camada 1"
     inkscape:groupmode="layer"
     id="layer1"
     transform="translate(-93.503046,-167.3106)"><g
       style="fill:none"
       id="g144"
       transform="matrix(0.26458333,0,0,0.26458333,93.503047,167.3106)"><path
         d="m 50.9,54.7 c 5.1362,0 9.3,-4.1638 9.3,-9.3 0,-5.1363 -4.1638,-9.3 -9.3,-9.3 -5.1363,0 -9.3,4.1637 -9.3,9.3 0,5.1362 4.1637,9.3 9.3,9.3 z"
         fill="#111224"
         id="path132" /><path
         d="m 50.9,79.6 c 7.3,7.1 14.5,11.3 20.3,11.3 1.9,0 3.7,-0.4 5.2,-1.3 5.2,-3 7.1,-10.5 5.3,-21.2 -0.3,-1.9 -0.7,-3.8 -1.2,-5.8 2,-0.6 3.8,-1.2 5.6,-1.8 10.1,-3.9 15.7,-9.3 15.7,-15.2 0,-6 -5.6,-11.4 -15.7,-15.2 -1.8,-0.7 -3.6,-1.3 -5.6,-1.8 0.5,-2 0.9,-3.9 1.2,-5.8 C 83.4,11.9 81.5,4.3 76.3,1.3 74.8,0.4 73,0 71.1,0 65.4,0 58.1,4.2 50.8,11.3 43.6,4.2 36.4,0 30.6,0 c -1.9,0 -3.7,0.4 -5.2,1.3 -5.2,3 -7.1,10.5 -5.3,21.2 0.3,1.9 0.7,3.8 1.2,5.8 -2,0.6 -3.8,1.2 -5.6,1.8 C 5.6,34 0,39.4 0,45.3 c 0,6 5.6,11.4 15.7,15.2 1.8,0.7 3.6,1.3 5.6,1.8 -0.5,2 -0.9,3.9 -1.2,5.8 -1.7,10.7 0.2,18.3 5.3,21.2 1.5,0.9 3.3,1.3 5.2,1.3 5.8,0.2 13,-4 20.3,-11 z M 45.3,66.1 c 1.8,0.1 3.7,0.1 5.6,0.1 1.9,0 3.8,0 5.6,-0.1 -1.8,2.4 -3.7,4.6 -5.6,6.7 C 49,70.7 47.1,68.5 45.3,66.1 Z M 32.9,55.8 c 1,1.7 1.9,3.3 3,4.9 -3.1,-0.4 -6,-0.9 -8.8,-1.5 0.9,-2.7 1.9,-5.5 3.1,-8.3 0.8,1.6 1.7,3.3 2.7,4.9 z M 27.1,31.7 c 2.8,-0.6 5.7,-1.1 8.8,-1.5 -1,1.6 -2,3.2 -3,4.9 -1,1.7 -1.9,3.3 -2.7,5 -1.3,-2.9 -2.3,-5.7 -3.1,-8.4 z m 5.5,13.7 c 1.3,-2.7 2.7,-5.4 4.3,-8.1 1.5,-2.6 3.2,-5.2 4.9,-7.8 3,-0.2 6,-0.3 9.1,-0.3 3.2,0 6.2,0.1 9.1,0.3 1.8,2.6 3.4,5.2 4.9,7.8 1.6,2.7 3,5.4 4.3,8.1 -1.3,2.7 -2.7,5.4 -4.3,8.1 -1.5,2.6 -3.2,5.2 -4.9,7.8 -3,0.2 -6,0.3 -9.1,0.3 -3.2,0 -6.2,-0.1 -9.1,-0.3 -1.8,-2.6 -3.4,-5.2 -4.9,-7.8 -1.6,-2.7 -3,-5.4 -4.3,-8.1 z M 71.7,40 69,35 c -1,-1.7 -1.9,-3.3 -3,-4.9 3.1,0.4 6,0.9 8.8,1.5 -0.9,2.8 -1.9,5.6 -3.1,8.4 z m 0,10.8 c 1.2,2.8 2.2,5.6 3.1,8.3 -2.8,0.6 -5.7,1.1 -8.8,1.5 1,-1.6 2,-3.2 3,-4.9 0.9,-1.5 1.8,-3.2 2.7,-4.9 z M 74,85.5 c -0.8,0.5 -1.8,0.7 -2.9,0.7 -4.9,0 -11,-4 -17,-10 2.9,-3.1 5.7,-6.6 8.5,-10.5 4.7,-0.4 9.2,-1.1 13.4,-2.1 0.5,1.8 0.8,3.6 1.1,5.4 1.4,8.5 0.3,14.6 -3.1,16.5 z m 5.2,-52.7 c 11.2,3.2 17.9,8.1 17.9,12.6 0,3.9 -4.6,7.8 -12.7,10.9 -1.6,0.6 -3.4,1.2 -5.2,1.7 -1.3,-4.1 -2.9,-8.3 -4.9,-12.6 2,-4.3 3.7,-8.5 4.9,-12.6 z m -8,-28.2 c 1.1,0 2,0.2 2.9,0.7 3.3,1.9 4.5,7.9 3.1,16.5 -0.3,1.7 -0.7,3.5 -1.1,5.4 -4.2,-0.9 -8.7,-1.6 -13.4,-2.1 -2.7,-3.9 -5.6,-7.4 -8.5,-10.5 6,-5.9 12.1,-10 17,-10 z M 56.5,24.7 c -1.8,-0.1 -3.7,-0.1 -5.6,-0.1 -1.9,0 -3.8,0 -5.6,0.1 1.8,-2.4 3.7,-4.6 5.6,-6.7 1.9,2.1 3.8,4.4 5.6,6.7 z M 27.8,5.3 c 0.8,-0.5 1.8,-0.7 2.9,-0.7 4.9,0 11,4 17,10 C 44.8,17.7 42,21.2 39.2,25.1 34.5,25.5 30,26.2 25.8,27.2 25.3,25.4 25,23.6 24.7,21.8 23.3,13.3 24.4,7.3 27.8,5.3 Z M 22.6,58 C 11.4,54.8 4.7,49.9 4.7,45.4 c 0,-3.9 4.6,-7.8 12.7,-10.9 1.6,-0.6 3.4,-1.2 5.2,-1.7 1.3,4.1 2.9,8.3 4.9,12.6 -2,4.3 -3.7,8.6 -4.9,12.6 z m 2.1,11 c 0.3,-1.7 0.7,-3.5 1.1,-5.4 4.2,0.9 8.7,1.6 13.4,2.1 2.7,3.9 5.6,7.4 8.5,10.5 -6,5.9 -12.1,10 -17,10 -1.1,0 -2,-0.2 -2.9,-0.7 -3.4,-1.9 -4.5,-8 -3.1,-16.5 z m -4.2,41.2 c 2.2,-2.7 2.3,-5.7 1.1,-8.7 -1.2,-3 -3.7,-4.4 -6.8,-4.5 -3.7,-0.1 -7.5,0 -11.2,0 H 2.9 v 25.9 h 3 v -9.8 h 4.7 c 0.6,0 1.1,0.2 1.4,0.7 l 6,9.3 c 0.1,0.2 0.4,0.5 0.6,0.5 h 3.9 c -2.4,-3.7 -4.7,-7.2 -7.1,-10.8 2.1,-0.3 3.9,-1 5.1,-2.6 z M 5.9,110 v -9.9 H 7 c 2.3,0 4.7,-0.1 7,0.1 2.7,0.1 4.6,2.2 4.6,4.9 0,2.7 -2.2,4.8 -4.9,4.9 -2.4,0.1 -4.8,0 -7.8,0 z m 38.7,1.3 c -1.6,-7 -8,-8.8 -12.9,-6.6 -3.8,1.7 -5.5,5 -5.6,9.1 -0.1,3.1 0.8,5.9 3.2,8 2.7,2.4 6,2.7 9.4,2.1 1.9,-0.4 3.6,-1.3 4.9,-2.7 -0.5,-0.7 -1,-1.4 -1.5,-2 -2.8,2.4 -5.9,3.2 -9.3,1.6 -2.2,-1.1 -3.3,-3.8 -3.5,-5.8 h 15.5 v -1.3 c 0.1,-0.9 0,-1.7 -0.2,-2.4 z m -15.1,1.6 c -0.3,-3 2.7,-6.2 6,-6.2 3.8,-0.1 6.2,2.2 6.3,6.2 z m 30.7,-8.7 c -1.5,-0.3 -3.1,-0.4 -4.6,-0.3 -2.4,0.2 -4.5,1.3 -6.2,3.1 0.5,0.7 0.9,1.4 1.5,2.2 0.2,-0.2 0.4,-0.4 0.6,-0.5 1.6,-1.5 3.5,-2.3 5.8,-2.1 1.8,0.1 3.5,0.7 4,2.5 0.4,1.4 0.3,2.9 0.4,4.4 -0.3,0 -0.4,-0.1 -0.5,-0.2 -2.4,-2 -5.1,-2.4 -8,-1.7 -2.7,0.7 -4.4,2.8 -4.6,5.5 -0.2,3.1 1.2,5.4 3.9,6.5 1.7,0.7 3.6,0.7 5.4,0.3 1.4,-0.3 2,-1.1 4,-2.2 v 1.3 h 2.8 c 0,-4 0.1,-8.9 0,-13.5 0,-2.9 -1.7,-4.7 -4.5,-5.3 z m 1.4,12.6 c -0.1,0.3 0,0.6 0,0.9 0,2.1 -0.5,2.8 -2.5,3.6 -1.4,0.5 -2.9,0.7 -4.4,0.2 -1.7,-0.5 -2.9,-2 -2.9,-3.7 -0.1,-1.7 1,-3.4 2.7,-3.9 2.3,-0.8 4.4,-0.3 6.3,1.1 0.6,0.5 1,1 0.8,1.8 z m 15.6,-9.9 c 2.6,-0.8 5,-0.3 6.8,1.9 l 0.3,0.2 c 0.7,-0.6 1.3,-1.2 2.1,-1.9 -0.3,-0.3 -0.4,-0.5 -0.6,-0.8 -2.9,-3.1 -8.6,-3.5 -12.1,-1 -4.9,3.6 -4.8,10.6 -2.4,14.3 2.3,3.5 5.6,4.7 9.5,4.2 2.3,-0.3 4.2,-1.4 5.7,-3.3 -0.7,-0.6 -1.4,-1.2 -2.1,-1.9 -0.2,0.2 -0.3,0.3 -0.4,0.5 -2.7,3 -7.2,2.7 -9.6,-0.5 -1.4,-1.9 -1.7,-4.1 -1.3,-6.3 0.2,-2.5 1.5,-4.5 4.1,-5.4 z M 98,120.5 c -0.2,0.1 -0.3,0.2 -0.3,0.2 -0.8,0.6 -1.6,0.7 -2.5,0.4 -0.9,-0.4 -1,-1.2 -1.1,-2 v -11.4 c 0,-0.2 0,0.2 0.1,-0.8 H 98 v -3 h -4 v -5 h -3 v 5.4 h -2.6 c -0.2,0 -0.5,0.2 -0.5,0.4 -0.1,0.7 0,1.2 0,2.2 h 3.2 v 12.8 c 0,1.6 0.4,3 1.8,3.8 1.5,0.9 4.4,0.7 5.7,-0.4 0.2,-0.1 0.3,-0.5 0.3,-0.6 -0.3,-0.6 -0.6,-1.3 -0.9,-2 z"
         fill="#111224"
         id="path134" /></g></g></svg>
