<?xml version="1.0" encoding="UTF-8" standalone="no"?>
<!-- Created with Inkscape (http://www.inkscape.org/) -->

<svg
   width="25.165497mm"
   height="24.606247mm"
   viewBox="0 0 25.165497 24.606247"
   version="1.1"
   id="svg5"
   xml:space="preserve"
   inkscape:export-filename="html.svg"
   inkscape:export-xdpi="96"
   inkscape:export-ydpi="96"
   xmlns:inkscape="http://www.inkscape.org/namespaces/inkscape"
   xmlns:sodipodi="http://sodipodi.sourceforge.net/DTD/sodipodi-0.dtd"
   xmlns="http://www.w3.org/2000/svg"
   xmlns:svg="http://www.w3.org/2000/svg"><sodipodi:namedview
     id="namedview7"
     pagecolor="#ffffff"
     bordercolor="#000000"
     borderopacity="0.25"
     inkscape:showpageshadow="2"
     inkscape:pageopacity="0.0"
     inkscape:pagecheckerboard="0"
     inkscape:deskcolor="#d1d1d1"
     inkscape:document-units="mm"
     showgrid="false" /><defs
     id="defs2" /><g
     inkscape:label="Camada 1"
     inkscape:groupmode="layer"
     id="layer1"
     transform="translate(-65.371034,-136.11561)"><g
       style="fill:none"
       id="g158"
       transform="matrix(0.26458333,0,0,0.26458333,65.371032,136.11561)"><path
         d="m 50.7273,0.00103205 c -1.171,0 -2.1136,0.94268195 -2.1136,2.11363795 V 4.2283 c 0,1.17096 0.9426,2.11364 2.1136,2.11364 h 21.1446 l 0.033,13.70566 c 0.0043,1.7443 1.4178,3.1573 3.1622,3.1621 l 13.7057,0.0362 v 60.2427 c 0,1.8112 -1.3592,3.1705 -3.1705,3.1705 H 36.9887 c -1.8113,0 -3.1705,-1.3593 -3.1705,-3.1705 v -3.1704 c 0,-1.171 -0.9427,-2.1137 -2.1136,-2.1137 h -2.1137 c -1.1709,0 -2.1136,0.9427 -2.1136,2.1137 v 3.1704 c 0,5.2146 4.2969,9.5114 9.5114,9.5114 h 48.6136 c 5.2144,0 9.5114,-4.2968 9.5114,-9.5114 v -64.437 c -2e-4,-0.8408 -0.3343,-1.647 -0.9289,-2.2416 L 78.3035,0.928844 C 77.709,0.334067 76.9028,2.11364e-4 76.062,0 Z M 27.4773,44.3874 c 0,1.1709 0.9427,2.1136 2.1136,2.1136 h 2.1137 c 1.1709,0 2.1136,-0.9427 2.1136,-2.1136 V 23.251 c 0,-1.1709 -0.9427,-2.1136 -2.1136,-2.1136 h -2.1137 c -1.1709,0 -2.1136,0.9427 -2.1136,2.1136 z"
         fill="#242730"
         id="path146" /><path
         d="m 36.9886,0.0010376 c -5.2144,0 -9.5113,4.2968124 -9.5113,9.5113624 v 5.2841 c 0,1.1709 0.9426,2.1136 2.1136,2.1136 h 2.1136 c 1.171,0 2.1137,-0.9427 2.1137,-2.1136 V 9.5124 c 0,-1.81117 1.3592,-3.17045 3.1704,-3.17045 h 5.2841 c 1.171,0 2.1137,-0.94268 2.1137,-2.11364 V 2.11467 c 0,-1.170951 -0.9427,-2.1136324 -2.1137,-2.1136324 z M 4.22727,50.7283 C 1.88534,50.7283 0,52.6137 0,54.9556 V 69.751 c 0,2.342 1.88534,4.2273 4.22727,4.2273 H 57.0682 c 2.3419,0 4.2273,-1.8853 4.2273,-4.2273 V 54.9556 c 0,-2.3419 -1.8854,-4.2273 -4.2273,-4.2273 z m 13.84593,4.0333 c 0.9083,0 1.7366,0.1817 2.5843,0.5449 0.222,-0.4836 0.4623,-0.5449 1.0073,-0.5449 0.6459,0 0.8086,0.2048 0.8297,1.0527 l 0.0372,1.8948 v 0.1031 c 0,0.7468 -0.2404,1.0486 -1.0073,1.0486 -0.8073,0 -0.8889,-0.4444 -1.1311,-0.9288 -0.4037,-0.7872 -1.1114,-1.2303 -2.06,-1.2303 -1.2311,0 -1.9774,0.646 -1.9774,1.4532 0,1.0293 1.132,1.1284 3.1705,1.5522 2.442,0.5045 3.5915,1.5974 3.5915,3.5956 0,2.4218 -1.6962,3.7732 -4.7639,3.7732 -1.0092,0 -1.9348,-0.1036 -2.9641,-0.4871 -0.222,0.3836 -0.4848,0.4871 -0.9288,0.4871 -0.8073,0 -1.11,-0.2417 -1.1312,-1.0692 L 13.268,63.6825 v -0.0991 c 0,-0.8476 0.283,-1.1724 1.1105,-1.1724 0.7669,0 0.8669,0.5651 1.2302,1.2715 0.5248,1.0293 1.4132,1.515 2.7453,1.515 1.1907,0 1.9196,-0.5042 1.9196,-1.4325 0,-1.2715 -1.132,-1.2724 -3.3521,-1.8577 -2.2201,-0.5852 -3.3893,-1.3334 -3.3893,-3.3314 0,-2.2405 1.8568,-3.8143 4.541,-3.8143 z m 12.2814,0 c 3.2494,0 5.5525,2.5201 5.5525,6.0725 0,3.5723 -2.3416,6.118 -5.4699,6.118 -0.101,0 -0.3257,9e-4 -0.6688,-0.0211 l -0.7472,0.7637 c 0.5449,-0.1818 1.0899,-0.2807 1.6348,-0.2807 1.3522,0 2.1223,0.4623 2.6874,0.4623 0.6055,0 1.1073,-0.4211 1.511,-0.4211 0.4843,0 0.8504,0.4215 0.8504,0.9867 0,0.7264 -0.9715,1.354 -2.3036,1.354 -1.2715,0 -2.198,-0.6274 -3.1869,-0.6274 -1.2312,0 -2.0774,0.7678 -2.6627,0.7678 -0.5651,0 -1.0114,-0.4247 -1.0114,-0.9495 0,-0.4037 0.3013,-0.826 0.8463,-1.3912 l 0.9866,-1.0073 c -2.1576,-0.7881 -3.5874,-3.0114 -3.5874,-5.7547 0,-3.5524 2.2792,-6.072 5.5689,-6.072 z m 7.7032,0.322 h 4.2149 c 0.8073,0 1.2137,0.3027 1.2137,1.0898 0,0.8072 -0.4064,1.0898 -1.2137,1.0898 h -0.8669 v 7.3441 h 4.4791 v -1.7545 c 0,-0.8478 0.2862,-1.2508 1.0733,-1.2508 0.8073,0 1.0692,0.4233 1.0692,1.2508 v 3.026 c 0,0.7057 -0.2046,0.8876 -1.032,0.8876 h -8.9376 c -0.8073,0 -1.193,-0.2825 -1.193,-1.0899 0,-0.8072 0.3857,-1.0692 1.193,-1.0692 h 0.867 v -7.3441 h -0.867 c -0.8073,0 -1.193,-0.2826 -1.193,-1.0898 0,-0.7871 0.3857,-1.0898 1.193,-1.0898 z m -7.7032,1.9567 c -1.6549,0 -2.7246,1.3739 -2.7246,3.8764 0,2.5028 1.11,3.8929 2.7246,3.8929 1.6348,0 2.7246,-1.3701 2.7246,-3.8929 0,-2.5228 -1.0898,-3.8764 -2.7246,-3.8764 z"
         fill="#000000"
         id="path148" /></g></g></svg>
