<?xml version="1.0" encoding="UTF-8" standalone="no"?>
<!-- Created with Inkscape (http://www.inkscape.org/) -->

<svg
   width="20.108337mm"
   height="18.256256mm"
   viewBox="0 0 20.108337 18.256256"
   version="1.1"
   id="svg5"
   xml:space="preserve"
   inkscape:export-filename="html.svg"
   inkscape:export-xdpi="96"
   inkscape:export-ydpi="96"
   xmlns:inkscape="http://www.inkscape.org/namespaces/inkscape"
   xmlns:sodipodi="http://sodipodi.sourceforge.net/DTD/sodipodi-0.dtd"
   xmlns="http://www.w3.org/2000/svg"
   xmlns:svg="http://www.w3.org/2000/svg"><sodipodi:namedview
     id="namedview7"
     pagecolor="#ffffff"
     bordercolor="#000000"
     borderopacity="0.25"
     inkscape:showpageshadow="2"
     inkscape:pageopacity="0.0"
     inkscape:pagecheckerboard="0"
     inkscape:deskcolor="#d1d1d1"
     inkscape:document-units="mm"
     showgrid="false" /><defs
     id="defs2" /><g
     inkscape:label="Camada 1"
     inkscape:groupmode="layer"
     id="layer1"
     transform="translate(-133.66652,-146.47552)"><g
       style="fill:none"
       id="g200"
       transform="matrix(0.26458333,0,0,0.26458333,133.13735,144.09428)"><path
         d="M 2,43.5 V 78 H 78 V 9 H 2 Z m 46.1162,21.9247 c 0.342,-0.1753 1.6181,-0.8452 2.8246,-1.4806 l 2.185,-1.15 0.4592,0.6153 c 0.6397,0.8855 2.0362,2.1016 2.8817,2.507 2.4256,1.1615 5.7538,0.9976 7.3941,-0.3393 0.6112,-0.4686 0.9944,-1.1644 0.9944,-1.9406 0,-0.046 0,-0.0891 -0.0032,-0.1351 v 0.0057 c 0,-0.7992 -0.1108,-1.15 -0.57,-1.7537 -0.589,-0.7648 -1.7955,-1.4088 -5.2218,-2.76 -3.9204,-1.5324 -5.6082,-2.484 -7.1535,-3.9963 -0.931,-0.9602 -1.6499,-2.116 -2.0679,-3.3867 l -0.019,-0.0633 c -0.2881,-0.9746 -0.361,-3.4184 -0.133,-4.4016 0.8075,-3.4414 3.667,-5.8363 7.7932,-6.5493 1.3395,-0.23 4.4523,-0.1437 5.7665,0.1524 1.9317,0.437 3.401,1.219 4.7532,2.4898 0.6998,0.6785 1.7385,1.9147 1.8208,2.2137 0.0253,0.0863 -3.2807,2.0988 -5.282,3.2287 -0.0728,0.0431 -0.3642,-0.2416 -0.6872,-0.6786 -0.9816,-1.2937 -2.0045,-1.8515 -3.572,-1.9492 -2.3053,-0.1438 -3.7873,0.9516 -3.7746,2.7801 0,0.0316 -0.0032,0.069 -0.0032,0.1064 0,0.4341 0.1203,0.8424 0.3325,1.1989 L 56.8277,50.124 c 0.5066,0.9516 1.4503,1.5238 4.4016,2.6824 5.4435,2.1275 7.771,3.5276 9.2182,5.52 1.615,2.2223 1.9792,5.773 0.8803,8.4122 -1.2033,2.8693 -4.1958,4.8185 -8.4075,5.4625 -1.3015,0.2099 -4.389,0.1783 -5.7886,-0.0517 -3.0527,-0.4945 -5.947,-1.863 -7.733,-3.6599 -0.6999,-0.6986 -2.0647,-2.53 -1.9792,-2.6594 0.0348,-0.046 0.3483,-0.2214 0.6967,-0.4054 z M 18.6503,43.6869 c 0,-1.5353 0.0349,-2.8175 0.0824,-2.8463 0.038,-0.046 6.0578,-0.069 13.3538,-0.0575 l 13.2842,0.0345 0.0348,2.8146 0.0253,2.8262 H 35.535 V 71.9769 H 28.5367 V 46.4584 h -9.8864 z"
         fill="#000000"
         id="path191" /></g></g></svg>
