<?xml version="1.0" encoding="UTF-8" standalone="no"?>
<!-- Created with Inkscape (http://www.inkscape.org/) -->

<svg
   width="16.49073mm"
   height="16.205322mm"
   viewBox="0 0 16.49073 16.205322"
   version="1.1"
   id="svg5"
   xml:space="preserve"
   xmlns="http://www.w3.org/2000/svg"
   xmlns:svg="http://www.w3.org/2000/svg"><defs
     id="defs2"><filter
       y="-2.9555414"
       height="6.9110823"
       style="color-interpolation-filters:sRGB"
       id="filter49748"
       x="-2.5457909"
       width="6.0915818"><feGaussianBlur
         stdDeviation="5"
         result="result6"
         id="feGaussianBlur49738" /><feComposite
         result="result8"
         in="SourceGraphic"
         operator="atop"
         in2="result6"
         id="feComposite49740" /><feComposite
         result="result9"
         operator="over"
         in2="SourceAlpha"
         in="result8"
         id="feComposite49742" /><feColorMatrix
         values="1 0 0 0 0 0 1 0 0 0 0 0 1 0 0 0 0 0 1 0 "
         result="result10"
         id="feColorMatrix49744" /><feBlend
         in="result10"
         mode="normal"
         in2="result6"
         id="feBlend49746" /></filter></defs><g
     id="layer1"
     transform="translate(-87.22838,-141.73108)"><g
       id="tools"
       transform="translate(15.524153,0.2572798)"><ellipse
         style="opacity:1;fill:#9c29b7;fill-opacity:0.0704201;stroke:#855388;stroke-width:0.264583;stroke-opacity:1"
         id="path14445-9"
         cx="79.712143"
         cy="149.38965"
         rx="6.9863892"
         ry="7.7835627" /><ellipse
         style="fill:#9c29b7;fill-opacity:0.0704201;stroke:#f9e3fe;stroke-width:0.821;stroke-dasharray:0.821, 0.821;stroke-dashoffset:0;stroke-opacity:1"
         id="path14445-3-3"
         cx="79.762695"
         cy="149.42763"
         rx="5.8452702"
         ry="6.5122375" /><ellipse
         style="fill:#9c29b7;fill-opacity:0.0704201;stroke:#824ccb;stroke-width:0.576716;stroke-dasharray:6.92059, 6.92059;stroke-dashoffset:0;stroke-opacity:1"
         id="path14445-3-5-6"
         cx="79.880028"
         cy="149.40804"
         rx="4.1060438"
         ry="4.5745592" /><path
         d="m 82.306426,148.82486 c 0,-0.68013 -0.55335,-1.23354 -1.23333,-1.23354 -0.49908,0 -0.92953,0.29794 -1.123595,0.7251 -0.193876,-0.42716 -0.624424,-0.7251 -1.123262,-0.7251 -0.680272,0 -1.233476,0.55341 -1.233476,1.23354 0,0.14347 0.02464,0.28107 0.06997,0.40931 0.05158,0.14599 0.129766,0.27933 0.228886,0.39432 0.04227,0.0492 0.08818,0.0949 0.137734,0.13688 l 1.881292,1.86872 c 0.01158,0.0116 0.02665,0.0174 0.04189,0.0174 0.01536,0 0.03054,-0.006 0.0422,-0.0174 l 1.951151,-1.93854 -1.3e-4,-3.4e-4 c 0.12645,-0.12674 0.22562,-0.28056 0.28772,-0.45225 0.0472,-0.1306 0.0729,-0.27145 0.0729,-0.41818"
         style="fill:#d40000;fill-opacity:1;fill-rule:nonzero;stroke:none;stroke-width:0.000793534;filter:url(#filter49748)"
         id="path49296-3-1"
         transform="matrix(0.57431672,0,0,0.57431672,34.033206,63.69133)" /><path
         d="m 82.287768,148.7934 c 0,-0.68013 -0.553355,-1.23354 -1.233333,-1.23354 -0.499077,0 -0.929529,0.29794 -1.123595,0.7251 -0.193876,-0.42716 -0.624424,-0.7251 -1.123262,-0.7251 -0.680272,0 -1.233476,0.55341 -1.233476,1.23354 0,0.14347 0.02464,0.28107 0.06997,0.40931 0.05158,0.14598 0.129766,0.27932 0.228886,0.39432 0.04227,0.0492 0.08818,0.0949 0.137734,0.13688 l 1.881292,1.86872 c 0.01158,0.0116 0.02665,0.0174 0.04189,0.0174 0.01536,0 0.03054,-0.006 0.0422,-0.0174 l 1.951155,-1.93854 -1.34e-4,-3.4e-4 c 0.126449,-0.12674 0.225617,-0.28056 0.287719,-0.45225 0.04716,-0.13061 0.07295,-0.27146 0.07295,-0.41818"
         style="fill:#ef687a;fill-opacity:1;fill-rule:nonzero;stroke:none;stroke-width:0.000793534"
         id="path49296-3" /></g></g></svg>
